<?xml version="1.0" encoding="UTF-8"?>
<svg id="Layer_1" data-name="Layer 1" xmlns="http://www.w3.org/2000/svg" viewBox="0 0 180.02 134.62">
  <defs>
    <style>
      .cls-1 {
        fill: #293841;
      }

      .cls-2 {
        fill: none;
        stroke: #293841;
        stroke-miterlimit: 10;
      }
    </style>
  </defs>
  <polygon class="cls-2" points="83.86 69.97 114.63 1.43 116.21 1.43 116.22 4.34 116.8 53.98 147.03 53.98 147.03 .5 179.52 .5 179.52 134.11 147.03 134.11 147.03 80.95 116.8 80.95 116.8 134.11 83.86 134.12 83.86 69.97"/>
  <polyline class="cls-1" points="83.86 69.97 114.63 1.43 116.21 1.43 116.22 4.34 116.52 30.3 116.52 .49 81.35 .49 57.88 49.8 34.4 .49 0 .49 0 134.13 32.34 134.13 32.34 69.98 57.88 106.81 83.41 69.98"/>
</svg>